<?xml version="1.0" standalone="no"?>
<!DOCTYPE svg PUBLIC "-//W3C//DTD SVG 20010904//EN"
 "http://www.w3.org/TR/2001/REC-SVG-20010904/DTD/svg10.dtd">
<svg version="1.0" xmlns="http://www.w3.org/2000/svg"
 width="1280.000000pt" height="1280.000000pt" viewBox="0 0 1280.000000 1280.000000"
 preserveAspectRatio="xMidYMid meet">
<metadata>
Created by potrace 1.15, written by Peter Selinger 2001-2017
</metadata>
<g transform="translate(0.000000,1280.000000) scale(0.100000,-0.100000)"
fill="#000000" stroke="none">
<path d="M4887 11756 c-55 -20 -112 -62 -140 -104 -13 -20 -348 -611 -745
-1313 -588 -1038 -724 -1285 -732 -1330 -7 -36 -9 -1401 -8 -4024 l3 -3970 33
-67 c39 -79 93 -129 169 -158 53 -20 74 -20 2933 -20 2859 0 2880 0 2933 20
76 29 130 79 169 158 l33 67 3 3970 c1 2623 -1 3988 -8 4024 -8 45 -144 292
-732 1330 -397 702 -732 1293 -745 1313 -28 42 -85 84 -140 104 -56 20 -2970
20 -3026 0z m1592 -1457 c95 -15 168 -44 244 -96 294 -200 331 -619 77 -873
-112 -112 -239 -164 -400 -164 -161 0 -288 52 -400 164 -333 332 -150 891 317
970 69 11 90 11 162 -1z"/>
</g>
</svg>
